# 3ds Max Wavefront OBJ Exporter v0.97b - (c)2007 guruware
# File Created: 22.06.2017 17:22:07

mtllib wulaofeng_pubu1.mtl

#
# object Plane002
#

v  1.5289 34.0045 98.3005
v  1.3890 34.0045 72.4779
v  -19.6899 34.0045 74.8487
v  -15.4055 34.0045 99.7973
v  -17.7286 34.0045 127.4898
v  1.4874 34.0045 125.7556
v  -7.2025 33.8619 146.6184
v  -18.0096 33.8986 143.4455
v  -16.1524 33.9036 151.5987
v  -9.1781 33.6055 151.3968
v  -9.1781 31.7995 152.7997
v  -16.2055 31.7995 153.1439
v  -16.1683 22.6141 155.0327
v  -9.1247 22.6141 154.7383
v  -23.1266 33.6359 151.3215
v  -23.2406 33.0093 152.1545
v  -16.2081 33.1346 152.4460
v  -9.1755 33.1346 152.2062
v  -40.7689 34.0045 77.2195
v  -32.3400 34.0045 101.2942
v  -36.9445 34.0045 129.2239
v  -28.8168 33.9353 140.2727
v  -23.2330 31.7785 152.7691
v  -23.2119 22.6141 154.8482
# 24 vertices

vn -0.0000 1.0000 0.0000
vn 0.0005 1.0000 0.0033
vn 0.0003 1.0000 0.0028
vn 0.0111 0.9998 0.0187
vn -0.0047 0.9999 0.0102
vn -0.0116 0.9306 0.3658
vn 0.0489 0.9620 0.2685
vn 0.0391 0.3113 0.9495
vn -0.0018 0.3338 0.9427
vn 0.0036 0.2088 0.9779
vn 0.0409 0.2066 0.9776
vn -0.0318 0.9553 0.2939
vn -0.0451 0.6372 0.7694
vn -0.0091 0.6103 0.7921
vn 0.0419 0.6622 0.7482
vn 0.0002 1.0000 0.0026
vn -0.0006 0.9999 0.0120
vn -0.0457 0.3317 0.9423
vn -0.0255 0.2211 0.9749
# 19 vertex normals

vt 0.4785 0.6193 0.0000
vt 0.4769 0.9021 0.0000
vt 0.2385 0.8761 0.0000
vt 0.2869 0.6029 0.0000
vt 0.2607 0.2996 0.0000
vt 0.4781 0.3186 0.0000
vt 0.3797 0.0901 0.0000
vt 0.2575 0.1249 0.0000
vt 0.2785 0.0382 0.0000
vt 0.3574 0.0378 0.0000
vt 0.3574 0.0224 0.0000
vt 0.2779 0.0213 0.0000
vt 0.2783 0.0006 0.0000
vt 0.3580 0.0012 0.0000
vt 0.1996 0.0386 0.0000
vt 0.1983 0.0303 0.0000
vt 0.2779 0.0289 0.0000
vt 0.3574 0.0289 0.0000
vt 0.0000 0.8501 0.0000
vt 0.0954 0.5865 0.0000
vt 0.0433 0.2806 0.0000
vt 0.1352 0.1596 0.0000
vt 0.1984 0.0228 0.0000
vt 0.1986 0.0000 0.0000
# 24 texture coords

g Plane002
usemtl 02___Default
s 1
f 1/1/1 2/2/1 3/3/1 4/4/1 
f 4/4/1 5/5/2 6/6/3 1/1/1 
f 7/7/4 8/8/5 9/9/6 10/10/7 
f 11/11/8 12/12/9 13/13/10 14/14/11 
f 15/15/12 16/16/13 17/17/14 9/9/6 
f 17/17/14 12/12/9 11/11/8 18/18/15 
f 5/5/2 8/8/5 7/7/4 6/6/3 
f 3/3/1 19/19/1 20/20/1 4/4/1 
f 20/20/1 21/21/16 5/5/2 4/4/1 
f 8/8/5 22/22/17 15/15/12 9/9/6 
f 23/23/18 24/24/19 13/13/10 12/12/9 
f 18/18/15 10/10/7 9/9/6 17/17/14 
f 16/16/13 23/23/18 12/12/9 17/17/14 
f 5/5/2 21/21/16 22/22/17 8/8/5 
# 14 polygons

