# 3ds Max Wavefront OBJ Exporter v0.97b - (c)2007 guruware
# File Created: 22.06.2017 17:30:08

mtllib wulaofeng_pubu2.mtl

#
# object Plane001
#

v  -87.5105 30.5834 116.1348
v  -76.5865 30.5834 96.8657
v  -167.5658 30.5834 101.6073
v  -149.1786 30.5834 119.1286
v  -124.0757 30.5834 147.0582
v  -86.8838 30.5834 143.5900
v  -111.7409 30.0432 169.0161
v  -88.1872 29.8966 169.0914
v  -87.8219 26.5145 171.0563
v  -108.9302 26.5145 171.2160
v  -106.7858 19.3358 171.8225
v  -87.5765 19.3358 171.7126
v  -110.7590 29.7528 170.0605
v  -88.1631 29.7528 170.0599
v  -111.0747 29.1976 170.7036
v  -88.0674 29.1976 170.4940
# 16 vertices

vn 0.0000 1.0000 -0.0000
vn 0.0007 1.0000 0.0080
vn 0.0019 0.9999 0.0118
vn 0.0027 0.9957 0.0929
vn 0.0059 0.9962 0.0868
vn 0.0067 0.1459 0.9893
vn 0.0084 0.1557 0.9878
vn 0.0072 0.0874 0.9962
vn 0.0057 0.0912 0.9958
vn 0.0000 0.8909 0.4543
vn 0.0068 0.8547 0.5191
vn 0.0042 0.5424 0.8401
vn 0.0076 0.4069 0.9134
# 13 vertex normals

vt 0.8071 0.6791 0.0000
vt 0.9173 0.9141 0.0000
vt 0.0000 0.8562 0.0000
vt 0.1854 0.6426 0.0000
vt 0.4385 0.3020 0.0000
vt 0.8134 0.3443 0.0000
vt 0.5628 0.0342 0.0000
vt 0.8003 0.0333 0.0000
vt 0.8040 0.0093 0.0000
vt 0.5912 0.0074 0.0000
vt 0.6128 0.0000 0.0000
vt 0.8064 0.0013 0.0000
vt 0.5727 0.0215 0.0000
vt 0.8005 0.0215 0.0000
vt 0.5695 0.0136 0.0000
vt 0.8015 0.0162 0.0000
# 16 texture coords

g Plane001
usemtl 02___Default
s 1
f 1/1/1 2/2/1 3/3/1 4/4/1 
f 1/1/1 4/4/1 5/5/2 6/6/3 
f 6/6/3 5/5/2 7/7/4 8/8/5 
f 9/9/6 10/10/7 11/11/8 12/12/9 
f 7/7/4 13/13/10 14/14/11 8/8/5 
f 14/14/11 13/13/10 15/15/12 16/16/13 
f 16/16/13 15/15/12 10/10/7 9/9/6 
# 7 polygons

