# 3ds Max Wavefront OBJ Exporter v0.97b - (c)2007 guruware
# File Created: 15.06.2017 21:48:37

mtllib wlf_dx02_z.mtl

#
# object default
#

v  -13.2584 2.9675 3.6070
v  -15.9527 2.9941 4.2941
v  -13.1883 2.9977 17.9985
v  -9.0800 2.9916 17.2438
v  -3.9063 2.9905 5.5230
v  -1.9933 2.9848 15.4851
v  -1.7014 2.9995 9.8721
v  -27.2701 2.7930 13.4904
v  -26.4489 2.8629 15.2324
v  -25.0424 2.9480 16.1555
v  -2.0325 2.9397 8.2211
v  -1.6031 2.9995 7.0519
v  -2.6195 2.9891 16.0631
v  -6.4422 2.9484 4.2529
v  -7.3912 2.9856 16.9306
v  -19.6133 2.9983 26.8808
v  -19.4379 2.9803 28.2399
v  -17.3331 2.9967 27.9191
v  -2.4058 2.9995 5.7381
v  -1.6503 2.8656 17.3421
v  -1.7874 2.9995 18.9289
v  -0.6012 2.9592 18.6363
v  -22.8818 2.9050 19.6878
v  -22.6441 2.7284 21.2414
v  -21.3206 2.9859 23.6616
v  -4.5783 2.9164 4.8401
v  -27.5203 2.9995 10.1531
v  -28.1451 2.8349 11.6637
v  -25.6500 2.8713 16.6324
v  -24.2430 2.9277 16.0721
v  -24.5020 2.9995 9.1651
v  -6.1975 2.9995 20.6402
v  -5.0098 2.9995 21.0410
v  -4.3826 2.9973 20.7362
v  -1.6031 2.9995 8.0156
v  -1.6031 2.9995 6.4125
v  -19.0371 2.9995 4.0078
v  -18.2922 2.9839 4.6858
v  -18.2355 2.7284 4.4086
v  -2.4047 2.9738 20.0391
v  -13.7391 2.9979 25.9601
v  -12.8250 2.8676 25.6500
v  -11.4223 2.9976 24.6481
v  -9.8089 2.9995 22.8445
v  -9.2536 2.9995 21.9613
v  -7.7416 2.9993 21.6119
v  -11.8552 2.9995 24.6075
v  -15.8309 2.9995 27.0527
v  -16.8328 2.9995 27.6539
v  -18.5221 2.9819 5.2563
v  -21.2414 2.8932 5.0098
v  -22.0891 2.9974 6.6129
v  -23.2453 2.9995 7.4145
v  -23.8014 2.9511 8.1506
v  -18.4594 2.9810 5.2321
v  -23.3292 2.9401 17.1864
v  -20.8279 2.9086 4.5743
# 57 vertices

vn 0.0058 1.0000 -0.0024
vn 0.0018 1.0000 0.0005
vn -0.0027 1.0000 -0.0008
vn 0.0021 1.0000 -0.0024
vn -0.0039 0.9999 -0.0120
vn 0.0048 1.0000 -0.0003
vn 0.0029 1.0000 -0.0035
vn -0.0403 0.9989 0.0220
vn -0.0557 0.9984 -0.0072
vn -0.0239 0.9993 -0.0287
vn 0.0374 0.9989 -0.0271
vn -0.0339 0.9991 0.0235
vn 0.0189 0.9998 0.0052
vn 0.0007 0.9999 -0.0111
vn 0.0009 1.0000 -0.0029
vn -0.0020 1.0000 0.0023
vn -0.0057 0.9999 0.0140
vn -0.0021 1.0000 0.0038
vn -0.0057 1.0000 0.0035
vn 0.0389 0.9991 -0.0138
vn -0.1488 0.9842 -0.0959
vn 0.0134 0.9965 -0.0829
vn -0.0447 0.9990 0.0095
vn -0.4805 0.8601 0.1713
vn -0.0280 0.9996 0.0004
vn 0.0730 0.9813 -0.1783
vn -0.0039 0.9981 0.0620
vn -0.0957 0.9930 0.0686
vn -0.0900 0.9949 0.0454
vn -0.0151 0.9998 -0.0105
vn 0.0472 0.9987 0.0178
vn -0.0017 1.0000 -0.0038
vn 0.0014 1.0000 -0.0042
vn 0.0090 0.9999 -0.0053
vn -0.1378 0.9905 -0.0000
vn 0.0000 1.0000 -0.0000
vn 0.0554 0.9964 -0.0637
vn 0.1239 0.9847 -0.1228
vn 0.4974 0.6863 -0.5306
vn -0.0245 0.9986 -0.0469
vn 0.0510 0.9987 0.0028
vn 0.0676 0.9976 0.0138
vn 0.0020 1.0000 -0.0006
vn -0.0038 1.0000 -0.0024
vn -0.0004 1.0000 -0.0002
vn 0.0001 1.0000 -0.0022
vn -0.0582 0.9982 0.0115
vn -0.0005 1.0000 -0.0015
vn -0.0462 0.9960 -0.0771
vn 0.0020 1.0000 0.0068
vn -0.0278 0.9982 -0.0524
vn 0.0194 0.9992 0.0357
vn 0.0980 0.9855 0.1388
vn 0.0185 0.9997 0.0156
vn 0.0072 0.9999 0.0075
vn 0.0094 0.9999 0.0082
vn -0.0347 0.9993 0.0101
# 57 vertex normals

vt 0.4419 0.1202 0.0000
vt 0.5318 0.1431 0.0000
vt 0.4396 0.6000 0.0000
vt 0.3027 0.5748 0.0000
vt 0.1302 0.1841 0.0000
vt 0.0664 0.5162 0.0000
vt 0.0567 0.3291 0.0000
vt 0.9090 0.4497 0.0000
vt 0.8816 0.5077 0.0000
vt 0.8347 0.5385 0.0000
vt 0.0678 0.2740 0.0000
vt 0.0534 0.2351 0.0000
vt 0.0873 0.5354 0.0000
vt 0.2147 0.1418 0.0000
vt 0.2464 0.5644 0.0000
vt 0.6538 0.8960 0.0000
vt 0.6479 0.9413 0.0000
vt 0.5778 0.9306 0.0000
vt 0.0802 0.1913 0.0000
vt 0.0550 0.5781 0.0000
vt 0.0596 0.6310 0.0000
vt 0.0200 0.6212 0.0000
vt 0.7627 0.6563 0.0000
vt 0.7548 0.7080 0.0000
vt 0.7107 0.7887 0.0000
vt 0.1526 0.1613 0.0000
vt 0.9173 0.3384 0.0000
vt 0.9382 0.3888 0.0000
vt 0.8550 0.5544 0.0000
vt 0.8081 0.5357 0.0000
vt 0.8167 0.3055 0.0000
vt 0.2066 0.6880 0.0000
vt 0.1670 0.7014 0.0000
vt 0.1461 0.6912 0.0000
vt 0.0534 0.2672 0.0000
vt 0.0534 0.2138 0.0000
vt 0.6346 0.1336 0.0000
vt 0.6097 0.1562 0.0000
vt 0.6079 0.1470 0.0000
vt 0.0802 0.6680 0.0000
vt 0.4580 0.8653 0.0000
vt 0.4275 0.8550 0.0000
vt 0.3807 0.8216 0.0000
vt 0.3270 0.7615 0.0000
vt 0.3085 0.7320 0.0000
vt 0.2581 0.7204 0.0000
vt 0.3952 0.8203 0.0000
vt 0.5277 0.9018 0.0000
vt 0.5611 0.9218 0.0000
vt 0.6174 0.1752 0.0000
vt 0.7080 0.1670 0.0000
vt 0.7363 0.2204 0.0000
vt 0.7748 0.2471 0.0000
vt 0.7934 0.2717 0.0000
vt 0.6153 0.1744 0.0000
vt 0.7776 0.5729 0.0000
vt 0.6943 0.1525 0.0000
# 57 texture coords

g default
usemtl default
s 1
f 1/1/1 2/2/2 3/3/3 4/4/4 
f 5/5/5 6/6/6 7/7/7 
f 8/8/8 9/9/9 10/10/10 
f 5/5/5 11/11/11 12/12/12 
f 13/13/13 5/5/5 14/14/14 15/15/15 
f 16/16/16 17/17/17 18/18/18 
f 5/5/5 12/12/12 19/19/19 
f 20/20/20 21/21/21 22/22/22 
f 23/23/23 24/24/24 25/25/25 
f 14/14/14 5/5/5 26/26/26 
f 27/27/27 28/28/28 8/8/8 
f 9/9/9 29/29/29 10/10/10 
f 11/11/11 5/5/5 7/7/7 
f 5/5/5 13/13/13 6/6/6 
f 8/8/8 30/30/30 31/31/31 27/27/27 
f 8/8/8 10/10/10 30/30/30 
f 32/32/32 33/33/33 34/34/34 
f 12/12/12 11/11/11 35/35/35 
f 19/19/19 12/12/12 36/36/36 
f 37/37/37 38/38/38 39/39/39 
f 34/34/34 20/20/20 13/13/13 32/32/32 
f 40/40/40 21/21/21 20/20/20 34/34/34 
f 14/14/14 1/1/1 4/4/4 15/15/15 
f 2/2/2 23/23/23 3/3/3 
f 41/41/41 42/42/42 3/3/3 23/23/23 25/25/25 
f 43/43/43 44/44/44 45/45/45 46/46/46 4/4/4 3/3/3 47/47/47 
f 4/4/4 46/46/46 15/15/15 
f 13/13/13 15/15/15 46/46/46 32/32/32 
f 42/42/42 47/47/47 3/3/3 
f 16/16/16 48/48/48 41/41/41 25/25/25 
f 18/18/18 49/49/49 48/48/48 16/16/16 
f 50/50/50 51/51/51 52/52/52 
f 52/52/52 53/53/53 54/54/54 
f 2/2/2 38/38/38 55/55/55 
f 38/38/38 50/50/50 55/55/55 
f 54/54/54 31/31/31 30/30/30 56/56/56 50/50/50 52/52/52 
f 23/23/23 55/55/55 50/50/50 56/56/56 
f 55/55/55 23/23/23 2/2/2 
f 50/50/50 38/38/38 37/37/37 57/57/57 
f 50/50/50 57/57/57 51/51/51 
# 14 polygons - 26 triangles

